# xmcd CD database file
#
# Track frame offsets:
#	150
#	25298
#	47436
#	60941
#	81557
#	105490
#	132475
#	151093
#	177709
#	201172
#	223400
#	239898
#	268861
#	286591
#
# Disc length: 4133 seconds
#
# Revision: 2
# Processed by: cddbd v1.5.2PL0 Copyright (c) Steve Scherf et al.
# Submitted via: CDex 1.51
#
DISCID=d210230e
DTITLE=Lucky Lopez Evans - Evil
DYEAR=1990
DGENRE=Blues
TTITLE0=Chinaman's Door
TTITLE1=Walk out like a lady
TTITLE2=Welcome to the Club
TTITLE3=Evil
TTITLE4=Chicken Heads
TTITLE5=Rainbow's End
TTITLE6=Little Baby
TTITLE7=Blues Plague
TTITLE8=Hail to the King
TTITLE9=If you leave me (I'll go crazy)
TTITLE10=Break your neck
TTITLE11=You're gonna need another favour
TTITLE12=Kansas City
TTITLE13=How blue can you get
EXTD=1990 YEAR: 1990
EXTT0=
EXTT1=
EXTT2=
EXTT3=
EXTT4=
EXTT5=
EXTT6=
EXTT7=
EXTT8=
EXTT9=
EXTT10=
EXTT11=
EXTT12=
EXTT13=
PLAYORDER=
